# xmcd
#
# Track frame offsets: 
#        150
#        20165
#        36080
#        63272
#        85957
#        111325
#        134350
#        154917
#        174842
#        191782
#        206750
#        228305
#
# Disc length: 3636 seconds
#
# Revision: 3
# Processed by: cddbd v1.5.2PL0 Copyright (c) Steve Scherf et al.
# Submitted via: ExactAudioCopy v1.0b3
#
DISCID=a50e320c
DTITLE=Muddy Waters - Blues Sky
DYEAR=1992
DGENRE=Blues
TTITLE0=Jealous Hearted Man
TTITLE1=I Can't Be Satisfied
TTITLE2=Crosseyed Cat
TTITLE3=Who Do You Trust
TTITLE4=Mamie
TTITLE5=Screamin' and Cryin'
TTITLE6=Too Young to Know
TTITLE7=Forever Lonely
TTITLE8=I Feel Like Going Home
TTITLE9=(My Eyes) Keep Me In Trouble
TTITLE10=Streamline Woman (Live)
TTITLE11=Deep Down In Florida (Live)
EXTD=ID3G:   0
EXTT0=
EXTT1=
EXTT2=
EXTT3=
EXTT4=
EXTT5=
EXTT6=
EXTT7=
EXTT8=
EXTT9=
EXTT10=
EXTT11=
PLAYORDER=
